<svg xmlns="http://www.w3.org/2000/svg" viewBox="0 0 500 400">
  <path d="M120 48 C150 28 210 20 260 34 C305 48 335 86 345 122 C350 150 342 182 320 206 C305 224 290 236 270 248 C250 260 236 268 220 278 C210 288 200 300 190 318 C180 338 170 352 156 364 C140 378 122 388 100 392 C90 394 80 392 70 388 C60 384 58 372 64 358 C70 344 84 330 98 318 C112 306 130 296 146 284 C160 274 176 262 188 246 C200 230 210 214 220 196 C230 178 242 162 258 150 C274 138 292 130 310 124 C328 118 346 116 362 124 C378 132 392 144 404 156 C416 168 426 186 432 206 C438 226 440 248 436 270 C432 292 422 312 404 328 C386 344 362 356 338 362 C314 368 290 370 266 368 C242 366 220 360 200 350 C180 340 162 326 150 310 C138 294 130 274 122 252 C114 230 110 206 110 180 C110 154 112 120 120 96 C128 72 140 58 150 48 Z" fill="#e0e7ff" stroke="#667eea" stroke-width="2"/>
</svg>
