<svg width="115" height="115" viewBox="0 0 115 115" fill="none" xmlns="http://www.w3.org/2000/svg">
<g filter="url(#filter0_d_14_86)">
<circle cx="57.5" cy="53.5" r="53.5" fill="url(#paint0_linear_14_86)"/>
</g>
<path d="M21.8351 54.6906C21.8351 54.9574 21.788 55.2294 21.6939 55.5066C21.5997 55.7786 21.4637 56.0271 21.2859 56.252C21.1132 56.4717 20.9014 56.6522 20.6503 56.7934C20.3992 56.9347 20.1141 57.0053 19.795 57.0053C19.5126 57.0053 19.2693 56.9582 19.0653 56.8641C18.8665 56.7647 18.7018 56.6339 18.571 56.4717C18.4454 56.3096 18.3513 56.1265 18.2885 55.9225C18.2257 55.7185 18.1944 55.5066 18.1944 55.2869C18.1944 55.0672 18.2205 54.8554 18.2728 54.6514C18.3304 54.4421 18.4167 54.2564 18.5318 54.0943C18.5631 54.2041 18.605 54.2904 18.6573 54.3532C18.7096 54.4107 18.7645 54.4526 18.8221 54.4787C18.8849 54.5101 18.9529 54.5284 19.0261 54.5337C19.1935 54.5337 19.3112 54.4892 19.3792 54.4003C19.4524 54.3113 19.489 54.2093 19.489 54.0943C19.489 54.0419 19.4786 53.9896 19.4576 53.9373C19.4367 53.8798 19.4027 53.8275 19.3556 53.7804C19.3138 53.7333 19.2563 53.6941 19.183 53.6627C19.1098 53.6313 19.0209 53.6156 18.9162 53.6156C18.8587 53.6156 18.775 53.6235 18.6651 53.6392C18.5605 53.6549 18.4428 53.6967 18.3121 53.7647C18.1813 53.8275 18.0479 53.9243 17.9119 54.055C17.7759 54.1858 17.6503 54.3637 17.5353 54.5886C17.4254 54.8135 17.3339 55.0934 17.2606 55.4282C17.1926 55.7629 17.1586 56.171 17.1586 56.6522C17.1586 56.9818 17.19 57.2695 17.2528 57.5153C17.3208 57.7559 17.4071 57.9626 17.5117 58.1352C17.6163 58.3078 17.7367 58.449 17.8727 58.5589C18.0087 58.6687 18.1473 58.7551 18.2885 58.8178C18.4298 58.8806 18.5658 58.9251 18.6965 58.9512C18.8325 58.9721 18.9529 58.9826 19.0575 58.9826C19.1935 58.9826 19.3635 58.9591 19.5675 58.912C19.7767 58.8597 19.9834 58.7681 20.1874 58.6374C20.3914 58.5066 20.5745 58.3261 20.7366 58.096C20.904 57.8658 21.0191 57.5676 21.0819 57.2015C21.2649 57.4578 21.4036 57.7638 21.4977 58.1195C21.5971 58.4752 21.6468 58.8492 21.6468 59.2415C21.6468 59.7751 21.55 60.293 21.3565 60.7951C21.1682 61.2921 20.8962 61.7341 20.5405 62.1212C20.19 62.5083 19.7637 62.8169 19.2615 63.0471C18.7593 63.2825 18.1996 63.4002 17.5823 63.4002C17.1272 63.4002 16.7061 63.3269 16.3191 63.1805C15.932 63.0392 15.5789 62.8405 15.2598 62.5841C14.9407 62.3278 14.6608 62.027 14.4202 61.6818C14.1796 61.3313 13.9756 60.9521 13.8082 60.5441C13.6408 60.136 13.5153 59.7071 13.4316 59.2572C13.3479 58.8021 13.306 58.3418 13.306 57.8763C13.306 57.3636 13.3609 56.8484 13.4708 56.3305C13.5806 55.8074 13.7376 55.3052 13.9416 54.824C14.1508 54.3427 14.4019 53.8929 14.6948 53.4744C14.993 53.0507 15.3304 52.6845 15.707 52.3759C16.0837 52.062 16.4969 51.8162 16.9468 51.6383C17.3966 51.4552 17.8753 51.3637 18.3827 51.3637C18.843 51.3637 19.2484 51.4186 19.5989 51.5285C19.9494 51.6331 20.2501 51.7769 20.5012 51.96C20.7575 52.1379 20.972 52.3419 21.1446 52.572C21.3173 52.8022 21.4533 53.0402 21.5527 53.2861C21.6573 53.5319 21.7305 53.7778 21.7724 54.0236C21.8142 54.2643 21.8351 54.4866 21.8351 54.6906ZM26.9903 62.9529C26.8804 62.9425 26.7575 62.932 26.6215 62.9215C26.5012 62.9111 26.3573 62.9032 26.1899 62.898C26.0225 62.8928 25.829 62.8901 25.6093 62.8901C25.1856 62.8901 24.6939 62.9085 24.1341 62.9451C23.5744 62.9817 22.9676 63.0523 22.3138 63.1569C22.4288 62.9215 22.5282 62.6234 22.6119 62.2624C22.6956 61.9015 22.7636 61.517 22.8159 61.109C22.8735 60.6958 22.9179 60.2773 22.9493 59.8536C22.9807 59.4299 23.0042 59.0349 23.0199 58.6687C23.0356 58.3026 23.0435 57.9861 23.0435 57.7193C23.0487 57.4525 23.0513 57.2695 23.0513 57.1701C23.0513 57.1492 23.0487 57.0681 23.0435 56.9268C23.0435 56.7856 23.0409 56.6025 23.0356 56.3776C23.0304 56.1526 23.0226 55.8963 23.0121 55.6086C23.0016 55.3157 22.9859 55.0123 22.965 54.6984C22.9493 54.3846 22.9258 54.0681 22.8944 53.749C22.8682 53.4299 22.8342 53.1291 22.7924 52.8467C22.7558 52.5642 22.7113 52.3105 22.659 52.0856C22.6119 51.8554 22.5544 51.6749 22.4864 51.5442C23.0147 51.6383 23.4986 51.7011 23.938 51.7325C24.3826 51.7639 24.7828 51.7796 25.1385 51.7796C25.3739 51.7796 25.5857 51.7743 25.7741 51.7639C25.9624 51.7534 26.1219 51.7429 26.2527 51.7325C26.4044 51.7168 26.5378 51.7011 26.6529 51.6854C26.5901 51.9783 26.5352 52.3053 26.4881 52.6662C26.441 53.0219 26.3992 53.4038 26.3625 53.8118C26.3259 54.2146 26.2971 54.6383 26.2762 55.0829C26.2605 55.5275 26.2527 55.9853 26.2527 56.456C26.2527 57.0001 26.2658 57.5546 26.2919 58.1195C26.3181 58.6792 26.3599 59.2363 26.4175 59.7908C26.4802 60.3453 26.5561 60.8893 26.645 61.4229C26.7392 61.9564 26.8542 62.4664 26.9903 62.9529ZM37.0023 57.4369C37.0023 58.2895 36.9082 59.0218 36.7199 59.6339C36.5316 60.2459 36.2831 60.7664 35.9745 61.1953C35.6658 61.619 35.3154 61.9617 34.923 62.2232C34.5307 62.4795 34.1305 62.6809 33.7225 62.8274C33.3197 62.9686 32.9248 63.0628 32.5377 63.1099C32.1506 63.1569 31.808 63.1805 31.5098 63.1805C31.0024 63.1805 30.5682 63.1622 30.2073 63.1255C29.8516 63.0942 29.556 63.0785 29.3207 63.0785C29.0539 63.0785 28.7583 63.0837 28.434 63.0942C28.1097 63.1046 27.7671 63.1255 27.4061 63.1569C27.5474 62.9006 27.6703 62.6155 27.7749 62.3017C27.8847 61.9826 27.9789 61.6504 28.0574 61.3052C28.1358 60.9599 28.2012 60.6121 28.2535 60.2616C28.3111 59.9059 28.3582 59.5632 28.3948 59.2337C28.4785 58.4595 28.5255 57.6644 28.536 56.8484C28.5255 56.0376 28.4863 55.2765 28.4183 54.565C28.3869 54.2616 28.3477 53.9583 28.3006 53.6549C28.2588 53.3462 28.2065 53.0559 28.1437 52.7839C28.0809 52.5067 28.0051 52.2582 27.9161 52.0385C27.8324 51.8188 27.7331 51.6435 27.618 51.5128C28.0051 51.5755 28.3712 51.6174 28.7165 51.6383C29.067 51.6592 29.3756 51.6697 29.6424 51.6697C29.815 51.6697 29.9824 51.6645 30.1445 51.654C30.3067 51.6435 30.4741 51.6331 30.6467 51.6226C30.8193 51.6122 31.0024 51.6017 31.196 51.5912C31.3947 51.5808 31.6171 51.5755 31.8629 51.5755C32.2186 51.5755 32.5926 51.6017 32.985 51.654C33.3825 51.7011 33.7696 51.7979 34.1462 51.9443C34.5281 52.0908 34.8916 52.2974 35.2369 52.5642C35.5821 52.831 35.8855 53.1815 36.1471 53.6156C36.4086 54.0498 36.6153 54.5807 36.767 55.2085C36.9239 55.8309 37.0023 56.5737 37.0023 57.4369ZM33.1654 57.2642C33.1654 56.6522 33.1471 56.1422 33.1105 55.7342C33.0739 55.3262 33.019 54.9992 32.9457 54.7534C32.8777 54.5023 32.7914 54.3244 32.6868 54.2198C32.5822 54.1152 32.4619 54.0629 32.3259 54.0629C32.2055 54.0629 32.0957 54.1256 31.9963 54.2512C31.9021 54.3715 31.8211 54.5677 31.7531 54.8397C31.6851 55.1117 31.6327 55.4622 31.5961 55.8911C31.5595 56.3148 31.5412 56.8301 31.5412 57.4369C31.5412 58.075 31.5569 58.6086 31.5883 59.0375C31.6249 59.4612 31.6746 59.8013 31.7374 60.0576C31.8054 60.3139 31.8864 60.497 31.9806 60.6068C32.08 60.7114 32.1951 60.7638 32.3259 60.7638C32.5822 60.7638 32.7862 60.4839 32.9379 59.9242C33.0896 59.3645 33.1654 58.4778 33.1654 57.2642ZM46.732 63.0942C46.4076 63.0523 46.0938 63.0235 45.7904 63.0078C45.4922 62.9922 45.1888 62.9843 44.8802 62.9843C44.0485 62.9843 43.1958 63.0654 42.3223 63.2275C42.3536 63.102 42.3876 62.9922 42.4243 62.898C42.4661 62.7986 42.5027 62.6914 42.5341 62.5763C42.5655 62.456 42.5916 62.3174 42.6126 62.1604C42.6335 62.0035 42.644 61.8021 42.644 61.5562C42.644 61.3052 42.6256 61.0672 42.589 60.8422C42.5524 60.6121 42.4975 60.4107 42.4243 60.238C42.351 60.0602 42.2595 59.919 42.1496 59.8143C42.045 59.7097 41.9221 59.6574 41.7808 59.6574C41.6239 59.6574 41.4905 59.7045 41.3807 59.7986C41.2761 59.8928 41.1897 60.021 41.1217 60.1831C41.059 60.3453 41.0119 60.531 40.9805 60.7402C40.9544 60.9495 40.9413 61.1718 40.9413 61.4072C40.9413 61.6426 40.9544 61.8466 40.9805 62.0192C41.0119 62.1866 41.0459 62.3331 41.0825 62.4586C41.1244 62.5841 41.1636 62.6966 41.2002 62.796C41.2368 62.8901 41.263 62.9843 41.2787 63.0785C40.9177 63.0366 40.562 63.0052 40.2116 62.9843C39.8663 62.9634 39.5211 62.9529 39.1758 62.9529C38.8306 62.9529 38.4827 62.9634 38.1322 62.9843C37.787 63.0052 37.4287 63.0366 37.0573 63.0785C37.3816 62.1369 37.6641 61.2032 37.9047 60.2773C38.1505 59.3514 38.3598 58.4203 38.5324 57.4839C38.705 56.5476 38.8437 55.6008 38.9483 54.6435C39.0581 53.6862 39.1392 52.7054 39.1915 51.7011C39.5786 51.7534 40.0023 51.7926 40.4626 51.8188C40.9282 51.8397 41.4042 51.8502 41.8907 51.8502C42.3039 51.8502 42.7041 51.8397 43.0912 51.8188C43.4835 51.7979 43.8445 51.7534 44.174 51.6854C44.2106 52.6845 44.3048 53.6679 44.4565 54.6357C44.6082 55.6034 44.7965 56.5633 45.0214 57.5153C45.2516 58.4621 45.5131 59.4011 45.8061 60.3322C46.099 61.2581 46.4076 62.1787 46.732 63.0942ZM42.3379 57.0053C42.3275 56.9059 42.2961 56.7594 42.2438 56.5659C42.1967 56.3985 42.1261 56.1788 42.0319 55.9068C41.9378 55.6296 41.7992 55.2738 41.6161 54.8397C41.5742 55.1117 41.5271 55.3549 41.4748 55.5694C41.4225 55.7786 41.3728 55.9696 41.3258 56.1422C41.2787 56.3096 41.2368 56.4639 41.2002 56.6051C41.1688 56.7464 41.1531 56.8798 41.1531 57.0053C41.1531 57.2668 41.2133 57.4709 41.3336 57.6173C41.4591 57.7586 41.5978 57.8292 41.7495 57.8292C41.9116 57.8292 42.0476 57.7507 42.1575 57.5938C42.2673 57.4369 42.3275 57.2407 42.3379 57.0053ZM56.085 57.4369C56.085 58.2895 55.9908 59.0218 55.8025 59.6339C55.6142 60.2459 55.3657 60.7664 55.0571 61.1953C54.7484 61.619 54.398 61.9617 54.0056 62.2232C53.6133 62.4795 53.2131 62.6809 52.8051 62.8274C52.4023 62.9686 52.0074 63.0628 51.6203 63.1099C51.2332 63.1569 50.8906 63.1805 50.5924 63.1805C50.085 63.1805 49.6509 63.1622 49.2899 63.1255C48.9342 63.0942 48.6387 63.0785 48.4033 63.0785C48.1365 63.0785 47.8409 63.0837 47.5166 63.0942C47.1923 63.1046 46.8497 63.1255 46.4887 63.1569C46.63 62.9006 46.7529 62.6155 46.8575 62.3017C46.9674 61.9826 47.0615 61.6504 47.14 61.3052C47.2184 60.9599 47.2838 60.6121 47.3361 60.2616C47.3937 59.9059 47.4408 59.5632 47.4774 59.2337C47.5611 58.4595 47.6082 57.6644 47.6186 56.8484C47.6082 56.0376 47.5689 55.2765 47.5009 54.565C47.4695 54.2616 47.4303 53.9583 47.3832 53.6549C47.3414 53.3462 47.2891 53.0559 47.2263 52.7839C47.1635 52.5067 47.0877 52.2582 46.9987 52.0385C46.9151 51.8188 46.8157 51.6435 46.7006 51.5128C47.0877 51.5755 47.4538 51.6174 47.7991 51.6383C48.1496 51.6592 48.4582 51.6697 48.725 51.6697C48.8976 51.6697 49.065 51.6645 49.2271 51.654C49.3893 51.6435 49.5567 51.6331 49.7293 51.6226C49.9019 51.6122 50.085 51.6017 50.2786 51.5912C50.4773 51.5808 50.6997 51.5755 50.9455 51.5755C51.3012 51.5755 51.6752 51.6017 52.0676 51.654C52.4651 51.7011 52.8522 51.7979 53.2288 51.9443C53.6107 52.0908 53.9743 52.2974 54.3195 52.5642C54.6647 52.831 54.9681 53.1815 55.2297 53.6156C55.4912 54.0498 55.6979 54.5807 55.8496 55.2085C56.0065 55.8309 56.085 56.5737 56.085 57.4369ZM52.248 57.2642C52.248 56.6522 52.2297 56.1422 52.1931 55.7342C52.1565 55.3262 52.1016 54.9992 52.0283 54.7534C51.9603 54.5023 51.874 54.3244 51.7694 54.2198C51.6648 54.1152 51.5445 54.0629 51.4085 54.0629C51.2881 54.0629 51.1783 54.1256 51.0789 54.2512C50.9848 54.3715 50.9037 54.5677 50.8357 54.8397C50.7677 55.1117 50.7154 55.4622 50.6787 55.8911C50.6421 56.3148 50.6238 56.8301 50.6238 57.4369C50.6238 58.075 50.6395 58.6086 50.6709 59.0375C50.7075 59.4612 50.7572 59.8013 50.82 60.0576C50.888 60.3139 50.9691 60.497 51.0632 60.6068C51.1626 60.7114 51.2777 60.7638 51.4085 60.7638C51.6648 60.7638 51.8688 60.4839 52.0205 59.9242C52.1722 59.3645 52.248 58.4778 52.248 57.2642ZM64.2296 63.1099C63.9576 63.0575 63.6777 63.0183 63.39 62.9922C63.1075 62.9608 62.8068 62.9372 62.4877 62.9215C62.1738 62.9058 61.8364 62.898 61.4755 62.898C61.1198 62.8928 60.7327 62.8901 60.3142 62.8901C60.1154 62.8901 59.8774 62.8928 59.6002 62.898C59.3282 62.9032 59.0326 62.9163 58.7135 62.9372C58.3997 62.9582 58.0753 62.9869 57.7406 63.0235C57.4058 63.0654 57.0788 63.1177 56.7598 63.1805C56.8748 62.9451 56.9742 62.6495 57.0579 62.2938C57.1416 61.9329 57.2096 61.551 57.2619 61.1482C57.3195 60.7454 57.3639 60.3348 57.3953 59.9163C57.4267 59.4979 57.4502 59.1082 57.4659 58.7472C57.4816 58.3863 57.4895 58.075 57.4895 57.8135C57.4947 57.5467 57.4973 57.3636 57.4973 57.2642C57.4973 57.2433 57.4947 57.1622 57.4895 57.021C57.4895 56.8798 57.4869 56.6967 57.4816 56.4717C57.4764 56.2468 57.4685 55.9905 57.4581 55.7028C57.4476 55.4098 57.4319 55.1065 57.411 54.7926C57.3953 54.4787 57.3718 54.1623 57.3404 53.8432C57.3142 53.5241 57.2802 53.2233 57.2384 52.9408C57.2018 52.6531 57.1573 52.3968 57.105 52.1719C57.0579 51.9417 57.0004 51.7586 56.9324 51.6226C57.445 51.6959 57.9498 51.7508 58.4467 51.7874C58.9437 51.8188 59.4249 51.8345 59.8905 51.8345C60.4607 51.8345 60.9942 51.8188 61.4912 51.7874C61.9881 51.756 62.4223 51.7194 62.7937 51.6775C63.2279 51.6305 63.6228 51.5755 63.9785 51.5128V55.1928C63.6751 54.9103 63.3848 54.6932 63.1075 54.5415C62.8303 54.3898 62.5844 54.2773 62.37 54.2041C62.1189 54.1204 61.8835 54.0733 61.6638 54.0629C61.4022 54.0629 61.1878 54.0969 61.0204 54.1649C60.8582 54.2276 60.7301 54.3113 60.6359 54.416C60.547 54.5154 60.4868 54.6304 60.4554 54.7612C60.4241 54.8868 60.4084 55.0149 60.4084 55.1457C60.4084 55.2817 60.4267 55.4177 60.4633 55.5537C60.5051 55.6897 60.5679 55.8126 60.6516 55.9225C60.7353 56.0323 60.8425 56.1239 60.9733 56.1971C61.1093 56.2651 61.2689 56.2991 61.4519 56.2991C61.6036 56.2991 61.7423 56.2651 61.8678 56.1971C61.9933 56.1239 62.1006 56.0428 62.1895 55.9539C62.2941 55.8545 62.3909 55.7394 62.4798 55.6086V58.8021C62.3961 58.6034 62.2967 58.4464 62.1817 58.3314C62.0718 58.2163 61.962 58.1326 61.8521 58.0803C61.7475 58.0227 61.6507 57.9887 61.5618 57.9783C61.4781 57.9626 61.4206 57.9547 61.3892 57.9547C61.0492 57.9547 60.7955 58.0593 60.6281 58.2686C60.4607 58.4778 60.377 58.7472 60.377 59.0768C60.377 59.3174 60.4031 59.5214 60.4554 59.6888C60.513 59.8562 60.5862 59.9922 60.6751 60.0968C60.7693 60.2014 60.8765 60.2773 60.9968 60.3244C61.1224 60.3714 61.2532 60.395 61.3892 60.395C61.5984 60.395 61.8233 60.3479 62.064 60.2537C62.3046 60.1596 62.5348 60.034 62.7545 59.8771C62.9794 59.7202 63.1834 59.5423 63.3665 59.3435C63.5548 59.1395 63.7039 58.9329 63.8137 58.7237L64.2296 63.1099ZM76.5015 51.6226C76.1771 52.5642 75.8894 53.5084 75.6384 54.4552C75.3873 55.3968 75.1623 56.341 74.9636 57.2878C74.77 58.2346 74.5974 59.184 74.4457 60.136C74.2992 61.0828 74.1685 62.0323 74.0534 62.9843C73.7814 62.9582 73.4989 62.9425 73.2059 62.9372C72.913 62.9268 72.6122 62.9215 72.3036 62.9215C71.8171 62.9215 71.3333 62.9372 70.852 62.9686C70.3708 62.9948 69.913 63.0366 69.4789 63.0942C69.3481 62.1369 69.1912 61.1849 69.0081 60.238C68.8302 59.286 68.621 58.3366 68.3804 57.3898C68.1397 56.443 67.8625 55.5014 67.5486 54.565C67.24 53.6235 66.8922 52.6845 66.5051 51.7482C66.8189 51.79 67.1302 51.824 67.4388 51.8502C67.7527 51.8711 68.0665 51.8816 68.3804 51.8816C68.8355 51.8816 69.2853 51.8606 69.73 51.8188C70.1746 51.7769 70.6192 51.7115 71.0639 51.6226C71.0377 51.9312 71.0194 52.2373 71.0089 52.5407C71.0037 52.8388 71.0011 53.137 71.0011 53.4352C71.0011 54.4395 71.0612 55.4177 71.1816 56.3697C71.3019 57.3218 71.4823 58.2633 71.723 59.1945C71.9217 58.3837 72.0682 57.5807 72.1624 56.7856C72.2565 55.9853 72.3036 55.1849 72.3036 54.3846C72.3036 53.4639 72.2408 52.5433 72.1153 51.6226C72.4762 51.6697 72.8372 51.7037 73.1981 51.7246C73.559 51.7403 73.9252 51.7482 74.2966 51.7482C74.6575 51.7482 75.0211 51.7403 75.3873 51.7246C75.7534 51.7037 76.1248 51.6697 76.5015 51.6226ZM81.3663 62.9529C81.2564 62.9425 81.1335 62.932 80.9975 62.9215C80.8772 62.9111 80.7333 62.9032 80.5659 62.898C80.3985 62.8928 80.205 62.8901 79.9853 62.8901C79.5616 62.8901 79.0699 62.9085 78.5102 62.9451C77.9504 62.9817 77.3437 63.0523 76.6898 63.1569C76.8049 62.9215 76.9043 62.6234 76.9879 62.2624C77.0716 61.9015 77.1396 61.517 77.192 61.109C77.2495 60.6958 77.294 60.2773 77.3253 59.8536C77.3567 59.4299 77.3803 59.0349 77.396 58.6687C77.4117 58.3026 77.4195 57.9861 77.4195 57.7193C77.4247 57.4525 77.4274 57.2695 77.4274 57.1701C77.4274 57.1492 77.4247 57.0681 77.4195 56.9268C77.4195 56.7856 77.4169 56.6025 77.4117 56.3776C77.4064 56.1526 77.3986 55.8963 77.3881 55.6086C77.3777 55.3157 77.362 55.0123 77.341 54.6984C77.3253 54.3846 77.3018 54.0681 77.2704 53.749C77.2443 53.4299 77.2103 53.1291 77.1684 52.8467C77.1318 52.5642 77.0873 52.3105 77.035 52.0856C76.9879 51.8554 76.9304 51.6749 76.8624 51.5442C77.3907 51.6383 77.8746 51.7011 78.314 51.7325C78.7586 51.7639 79.1588 51.7796 79.5145 51.7796C79.7499 51.7796 79.9618 51.7743 80.1501 51.7639C80.3384 51.7534 80.4979 51.7429 80.6287 51.7325C80.7804 51.7168 80.9138 51.7011 81.0289 51.6854C80.9661 51.9783 80.9112 52.3053 80.8641 52.6662C80.817 53.0219 80.7752 53.4038 80.7386 53.8118C80.7019 54.2146 80.6732 54.6383 80.6522 55.0829C80.6366 55.5275 80.6287 55.9853 80.6287 56.456C80.6287 57.0001 80.6418 57.5546 80.6679 58.1195C80.6941 58.6792 80.7359 59.2363 80.7935 59.7908C80.8563 60.3453 80.9321 60.8893 81.021 61.4229C81.1152 61.9564 81.2303 62.4664 81.3663 62.9529ZM91.2528 51.6226C90.9285 52.5642 90.6408 53.5084 90.3897 54.4552C90.1386 55.3968 89.9137 56.341 89.7149 57.2878C89.5214 58.2346 89.3487 59.184 89.197 60.136C89.0506 61.0828 88.9198 62.0323 88.8047 62.9843C88.5327 62.9582 88.2502 62.9425 87.9573 62.9372C87.6644 62.9268 87.3636 62.9215 87.055 62.9215C86.5685 62.9215 86.0846 62.9372 85.6034 62.9686C85.1221 62.9948 84.6644 63.0366 84.2302 63.0942C84.0995 62.1369 83.9425 61.1849 83.7594 60.238C83.5816 59.286 83.3724 58.3366 83.1317 57.3898C82.8911 56.443 82.6139 55.5014 82.3 54.565C81.9914 53.6235 81.6435 52.6845 81.2564 51.7482C81.5703 51.79 81.8815 51.824 82.1902 51.8502C82.504 51.8711 82.8179 51.8816 83.1317 51.8816C83.5868 51.8816 84.0367 51.8606 84.4813 51.8188C84.926 51.7769 85.3706 51.7115 85.8152 51.6226C85.7891 51.9312 85.7708 52.2373 85.7603 52.5407C85.7551 52.8388 85.7525 53.137 85.7525 53.4352C85.7525 54.4395 85.8126 55.4177 85.9329 56.3697C86.0532 57.3218 86.2337 58.2633 86.4743 59.1945C86.6731 58.3837 86.8196 57.5807 86.9137 56.7856C87.0079 55.9853 87.055 55.1849 87.055 54.3846C87.055 53.4639 86.9922 52.5433 86.8666 51.6226C87.2276 51.6697 87.5885 51.7037 87.9495 51.7246C88.3104 51.7403 88.6766 51.7482 89.048 51.7482C89.4089 51.7482 89.7725 51.7403 90.1386 51.7246C90.5048 51.7037 90.8762 51.6697 91.2528 51.6226ZM100.386 63.0942C100.062 63.0523 99.7479 63.0235 99.4445 63.0078C99.1464 62.9922 98.843 62.9843 98.5344 62.9843C97.7026 62.9843 96.85 63.0654 95.9764 63.2275C96.0078 63.102 96.0418 62.9922 96.0784 62.898C96.1203 62.7986 96.1569 62.6914 96.1883 62.5763C96.2196 62.456 96.2458 62.3174 96.2667 62.1604C96.2876 62.0035 96.2981 61.8021 96.2981 61.5562C96.2981 61.3052 96.2798 61.0672 96.2432 60.8422C96.2066 60.6121 96.1516 60.4107 96.0784 60.238C96.0052 60.0602 95.9136 59.919 95.8038 59.8143C95.6992 59.7097 95.5762 59.6574 95.435 59.6574C95.2781 59.6574 95.1447 59.7045 95.0348 59.7986C94.9302 59.8928 94.8439 60.021 94.7759 60.1831C94.7131 60.3453 94.666 60.531 94.6347 60.7402C94.6085 60.9495 94.5954 61.1718 94.5954 61.4072C94.5954 61.6426 94.6085 61.8466 94.6347 62.0192C94.666 62.1866 94.7 62.3331 94.7367 62.4586C94.7785 62.5841 94.8177 62.6966 94.8544 62.796C94.891 62.8901 94.9171 62.9843 94.9328 63.0785C94.5719 63.0366 94.2162 63.0052 93.8657 62.9843C93.5205 62.9634 93.1752 62.9529 92.83 62.9529C92.4847 62.9529 92.1369 62.9634 91.7864 62.9843C91.4411 63.0052 91.0828 63.0366 90.7114 63.0785C91.0357 62.1369 91.3182 61.2032 91.5588 60.2773C91.8047 59.3514 92.0139 58.4203 92.1866 57.4839C92.3592 56.5476 92.4978 55.6008 92.6024 54.6435C92.7123 53.6862 92.7934 52.7054 92.8457 51.7011C93.2328 51.7534 93.6565 51.7926 94.1168 51.8188C94.5823 51.8397 95.0584 51.8502 95.5448 51.8502C95.9581 51.8502 96.3583 51.8397 96.7454 51.8188C97.1377 51.7979 97.4986 51.7534 97.8282 51.6854C97.8648 52.6845 97.9589 53.6679 98.1106 54.6357C98.2623 55.6034 98.4507 56.5633 98.6756 57.5153C98.9058 58.4621 99.1673 59.4011 99.4602 60.3322C99.7532 61.2581 100.062 62.1787 100.386 63.0942ZM95.9921 57.0053C95.9816 56.9059 95.9502 56.7594 95.8979 56.5659C95.8509 56.3985 95.7802 56.1788 95.6861 55.9068C95.5919 55.6296 95.4533 55.2738 95.2702 54.8397C95.2284 55.1117 95.1813 55.3549 95.129 55.5694C95.0767 55.7786 95.027 55.9696 94.9799 56.1422C94.9328 56.3096 94.891 56.4639 94.8544 56.6051C94.823 56.7464 94.8073 56.8798 94.8073 57.0053C94.8073 57.2668 94.8674 57.4709 94.9877 57.6173C95.1133 57.7586 95.2519 57.8292 95.4036 57.8292C95.5658 57.8292 95.7018 57.7507 95.8116 57.5938C95.9215 57.4369 95.9816 57.2407 95.9921 57.0053Z" fill="white"/>
<path d="M66.998 40.7804C67.0331 47.0561 57.4901 49.0376 57.6982 48.6144C57.6982 48.6144 57.6999 42.8433 60.4008 37.3513C64.0425 29.9462 70.771 31.2599 70.771 31.2599C70.771 31.2599 66.9719 36.1014 66.998 40.7804Z" fill="white"/>
<path d="M49.2619 39.6538C48.934 45.9181 57.7594 49.3085 57.5848 48.855C57.5848 48.855 57.8545 43.0894 55.5886 37.2036C52.5334 29.2675 46.1834 29.5851 46.1834 29.5851C46.1834 29.5851 49.5063 34.9834 49.2619 39.6538Z" fill="white"/>
<defs>
<filter id="filter0_d_14_86" x="0" y="0" width="115" height="115" filterUnits="userSpaceOnUse" color-interpolation-filters="sRGB">
<feFlood flood-opacity="0" result="BackgroundImageFix"/>
<feColorMatrix in="SourceAlpha" type="matrix" values="0 0 0 0 0 0 0 0 0 0 0 0 0 0 0 0 0 0 127 0" result="hardAlpha"/>
<feOffset dy="4"/>
<feGaussianBlur stdDeviation="2"/>
<feComposite in2="hardAlpha" operator="out"/>
<feColorMatrix type="matrix" values="0 0 0 0 0 0 0 0 0 0 0 0 0 0 0 0 0 0 0.25 0"/>
<feBlend mode="normal" in2="BackgroundImageFix" result="effect1_dropShadow_14_86"/>
<feBlend mode="normal" in="SourceGraphic" in2="effect1_dropShadow_14_86" result="shape"/>
</filter>
<linearGradient id="paint0_linear_14_86" x1="57.5" y1="0" x2="57.5" y2="107" gradientUnits="userSpaceOnUse">
<stop stop-color="#5B86B8"/>
<stop offset="1" stop-color="#9467C0"/>
</linearGradient>
</defs>
</svg>
